<?xml version="1.0" standalone="no"?>
<!DOCTYPE svg PUBLIC "-//W3C//DTD SVG 20010904//EN"
 "http://www.w3.org/TR/2001/REC-SVG-20010904/DTD/svg10.dtd">
<svg version="1.0" xmlns="http://www.w3.org/2000/svg"
 width="419.000000pt" height="419.000000pt" viewBox="0 0 419.000000 419.000000"
 preserveAspectRatio="xMidYMid meet">
<metadata>
Created by potrace 1.11, written by Peter Selinger 2001-2013
</metadata>
<g transform="translate(0.000000,419.000000) scale(0.100000,-0.100000)"
fill="#000000" stroke="none">
<path d="M2495 4140 c-3 -5 -18 -10 -33 -10 -46 0 -57 -15 -22 -30 19 -8 29
-18 26 -26 -5 -14 31 -40 42 -30 3 3 0 6 -6 6 -7 0 -12 9 -12 20 0 24 8 25 37
5 23 -16 53 -11 53 10 0 14 -55 65 -70 65 -5 0 -12 -4 -15 -10z"/>
<path d="M1938 4109 c-2 -7 2 -20 10 -28 21 -22 -1 -25 -37 -7 -35 18 -51 20
-51 6 0 -5 6 -10 14 -10 8 0 23 -11 33 -25 10 -14 33 -28 53 -32 32 -6 34 -5
21 11 -12 14 -12 18 5 31 17 13 18 14 2 15 -10 0 -18 4 -18 8 0 5 -6 17 -14
27 -10 14 -14 15 -18 4z"/>
<path d="M2067 4101 c-3 -13 3 -26 17 -36 14 -11 17 -17 9 -21 -18 -8 -16 -22
8 -55 l20 -29 -24 0 c-14 0 -30 6 -36 14 -16 19 -51 27 -51 11 0 -15 -39 -24
-75 -17 -15 2 -25 11 -25 21 0 18 -70 81 -89 81 -6 0 -11 -6 -11 -14 0 -10
-16 -17 -45 -22 -25 -3 -48 -10 -50 -14 -3 -5 -30 -12 -60 -15 -30 -4 -55 -11
-55 -16 0 -5 -11 -9 -24 -9 -14 0 -33 -11 -44 -25 -11 -14 -25 -25 -31 -25 -5
0 -15 -9 -21 -19 -5 -11 -19 -23 -30 -26 -14 -4 -20 -15 -20 -36 0 -25 -3 -29
-19 -24 -10 3 -23 -1 -30 -9 -7 -8 -18 -13 -26 -10 -12 5 -35 -26 -51 -68 -3
-10 -12 -18 -20 -18 -17 0 -25 -15 -18 -34 4 -11 14 -14 35 -9 18 3 29 1 29
-6 0 -6 -8 -11 -19 -11 -10 0 -24 -7 -32 -16 -7 -8 -21 -13 -31 -11 -23 7 -33
-10 -17 -29 10 -12 14 -12 28 -1 21 19 112 41 120 29 3 -5 14 -12 25 -15 13
-5 17 -3 13 7 -10 25 4 25 50 0 31 -16 57 -22 79 -20 24 3 34 0 34 -9 0 -28
31 -43 110 -54 82 -12 97 -11 86 7 -7 12 -53 22 -128 29 -32 3 -58 9 -58 14 0
5 3 8 8 7 18 -7 12 18 -8 28 l-22 12 23 7 c16 5 26 2 36 -10 11 -17 17 -17 55
-5 24 8 48 17 54 22 12 9 44 1 44 -11 0 -11 -47 -31 -71 -31 -11 0 -17 -4 -14
-10 3 -5 26 -10 51 -10 31 0 43 3 38 11 -5 8 1 10 19 5 36 -9 61 2 46 20 -16
20 -8 25 41 27 29 1 44 -2 48 -12 3 -9 0 -12 -10 -8 -8 3 -22 -3 -30 -12 -13
-16 -11 -19 31 -36 25 -11 54 -18 63 -17 10 2 28 -6 40 -17 12 -12 32 -21 44
-21 12 0 24 -7 28 -15 6 -17 36 -21 36 -5 0 6 9 10 19 10 26 0 37 20 20 32
-16 11 -8 8 43 -15 20 -9 39 -21 43 -27 3 -5 16 -10 29 -10 12 0 27 -5 34 -12
6 -6 15 -8 19 -3 5 4 2 10 -4 12 -7 3 -13 8 -13 12 0 9 77 -9 97 -22 7 -4 36
-11 65 -14 29 -3 62 -12 73 -19 29 -20 36 -17 25 12 -9 21 -7 25 8 22 9 -1 23
1 29 5 7 4 21 3 32 -3 14 -7 27 -7 45 2 19 8 33 8 49 1 13 -6 30 -7 38 -3 11
7 81 7 109 1 3 -1 -10 -11 -27 -22 -18 -12 -33 -25 -33 -30 0 -5 -12 -9 -27
-9 -27 -1 -27 -1 -9 -15 26 -20 60 -20 52 0 -6 17 2 19 24 5 24 -15 -16 -52
-49 -46 -15 3 -34 -1 -45 -9 -23 -17 -15 -31 10 -17 10 6 32 6 56 1 29 -7 44
-6 62 6 25 17 56 11 56 -11 0 -9 -11 -14 -31 -14 -18 0 -28 -4 -24 -10 4 -6 1
-17 -5 -25 -10 -13 -8 -15 14 -15 33 0 36 -29 4 -31 -17 -1 -19 -2 -5 -6 9 -2
17 -10 17 -18 0 -20 30 -40 56 -37 25 4 34 -13 12 -20 -14 -5 -9 -17 30 -84
15 -26 20 -28 30 -17 18 19 37 6 20 -14 -14 -17 -19 -65 -6 -57 4 3 8 -2 8
-10 0 -8 -5 -18 -10 -21 -5 -3 -10 -11 -10 -16 0 -6 5 -7 10 -4 6 3 10 2 10
-4 0 -5 -4 -13 -10 -16 -5 -3 -10 -14 -10 -25 0 -14 5 -17 21 -13 19 5 20 4
10 -16 -7 -12 -23 -27 -36 -33 -20 -9 -34 -34 -35 -61 0 -5 9 -6 19 -2 24 7
37 -11 21 -29 -8 -11 -8 -15 2 -18 8 -3 12 -18 10 -40 -3 -29 1 -36 18 -41 13
-3 27 -21 37 -46 9 -23 20 -41 25 -41 10 0 10 7 -2 29 -10 20 -2 91 10 91 16
0 19 -30 4 -45 -14 -13 -14 -15 0 -15 12 0 15 -12 15 -52 -1 -29 7 -75 16
-102 12 -36 14 -55 7 -71 -8 -17 -6 -31 7 -55 9 -18 21 -31 26 -29 17 7 12
120 -6 143 -17 22 -33 196 -18 196 19 0 79 -69 79 -91 1 -22 1 -22 11 -5 8 13
8 25 -2 42 -9 18 -10 27 -2 35 8 8 13 5 18 -10 3 -12 10 -21 14 -21 3 0 15
-13 24 -30 14 -23 16 -34 7 -50 -9 -17 -8 -27 4 -45 9 -14 16 -32 16 -41 0
-10 8 -26 18 -37 10 -12 19 -42 22 -78 6 -66 19 -80 32 -34 5 17 12 36 14 44
7 23 32 -7 36 -42 2 -24 9 -33 24 -35 28 -4 49 -45 52 -101 2 -23 3 -24 22 -6
20 18 20 17 20 -16 0 -19 -6 -41 -12 -48 -11 -10 -10 -14 5 -22 25 -15 21 -39
-6 -39 -30 0 -50 38 -35 65 8 13 6 25 -6 45 -9 16 -16 37 -16 47 0 11 -13 29
-29 41 l-30 22 5 -98 c6 -141 6 -154 -5 -165 -8 -8 -22 45 -26 95 0 3 -3 9 -7
13 -3 3 -10 -22 -15 -57 -9 -71 -26 -80 -31 -16 -2 23 -7 47 -12 53 -4 5 -11
27 -15 48 -4 20 -12 37 -19 37 -15 0 -40 64 -26 68 11 4 2 52 -13 67 -6 7 -7
-2 -3 -26 5 -30 2 -40 -20 -62 -35 -36 -52 -34 -56 6 -4 32 -4 32 -12 -10 -9
-44 -36 -61 -36 -22 0 11 -5 17 -10 14 -6 -4 -8 -10 -5 -15 3 -4 -4 -19 -16
-31 l-20 -24 6 23 c6 21 4 23 -21 20 -24 -3 -29 -9 -36 -43 -18 -84 -36 -57
-29 43 2 27 -2 35 -18 39 -14 3 -21 14 -21 29 0 13 -8 33 -17 44 -18 21 -18
20 -23 -27 -3 -26 -1 -66 3 -88 11 -54 0 -125 -19 -125 -17 0 -420 160 -527
209 -37 17 -71 31 -76 31 -5 0 -14 6 -20 14 -17 20 -156 62 -315 94 -135 28
-166 42 -78 38 23 -1 42 1 42 6 0 4 -11 8 -24 8 -13 0 -43 7 -66 15 -48 17
-106 20 -114 6 -4 -5 -45 -12 -94 -16 -48 -4 -127 -13 -177 -21 -116 -18 -169
-18 -236 2 -84 24 -215 92 -233 119 -9 14 -25 25 -34 25 -10 0 -29 11 -42 25
-17 18 -33 25 -59 24 -20 0 -48 2 -63 6 -26 7 -29 4 -48 -39 l-19 -46 -58 0
c-63 0 -194 -24 -232 -43 -40 -19 -50 -99 -40 -305 12 -261 29 -321 99 -357
36 -19 99 -39 169 -55 59 -14 237 -9 266 7 43 25 107 102 145 176 24 45 53 96
66 114 25 33 110 86 125 77 5 -3 13 -19 19 -37 8 -27 9 -24 5 23 -10 99 -65
138 -116 83 -15 -15 -37 -48 -50 -73 -13 -24 -34 -54 -46 -65 -12 -11 -36 -56
-54 -99 -55 -136 -123 -180 -274 -179 -121 1 -212 31 -254 84 -36 47 -54 360
-22 392 10 10 53 -9 159 -72 40 -23 77 -39 82 -36 6 3 10 17 10 31 0 19 5 25
18 22 18 -3 18 -6 21 -60 l2 -33 18 23 c11 12 24 22 29 22 6 0 12 6 15 13 2 6
8 8 13 4 5 -4 2 -12 -6 -17 -11 -7 -12 -11 0 -25 16 -20 35 -14 35 11 0 10 7
20 15 20 8 1 21 2 28 3 6 0 12 11 12 24 0 28 10 41 35 51 17 6 9 13 -44 37
-35 16 -68 29 -72 29 -5 0 -9 4 -9 9 0 5 19 12 43 15 39 7 41 8 23 22 -23 17
-49 10 -92 -22 -17 -13 -38 -24 -47 -24 -19 0 -23 -25 -7 -35 8 -5 8 -11 1
-19 -6 -7 -8 -16 -4 -19 3 -4 -2 -7 -11 -7 -15 0 -17 7 -14 40 2 24 -1 40 -7
40 -6 0 -43 20 -83 45 -40 25 -77 45 -82 45 -6 0 -10 7 -10 15 0 27 99 47 212
43 155 -6 308 -56 356 -117 8 -10 29 -16 55 -17 23 0 77 -1 121 -2 l78 -2 -18
-27 c-16 -23 -19 -47 -19 -141 0 -86 -3 -111 -12 -107 -7 2 -13 0 -13 -5 0
-27 54 -259 69 -299 10 -25 21 -63 25 -83 7 -39 26 -62 26 -31 0 10 -5 35 -11
56 -6 22 -8 41 -5 44 3 3 34 -8 68 -24 159 -76 417 -107 554 -67 73 21 105 67
160 230 20 60 30 72 46 56 22 -22 33 -13 31 25 -2 50 -3 52 -14 23 -6 -19 -7
-13 -4 23 3 27 7 53 11 58 8 14 59 11 106 -7 205 -77 347 -139 383 -168 20
-15 20 -15 -5 -16 -25 0 -24 -1 10 -30 26 -22 30 -30 18 -30 -35 0 -17 -20 27
-31 62 -16 74 -33 52 -71 -10 -17 -16 -33 -14 -35 5 -4 194 97 232 123 22 16
45 18 45 5 0 -4 -43 -41 -95 -80 -145 -111 -190 -155 -214 -210 -20 -47 -22
-49 -56 -47 -31 3 -38 -1 -51 -26 -8 -16 -12 -33 -9 -38 3 -6 2 -10 -3 -10
-13 0 -159 -137 -367 -346 -104 -105 -212 -206 -239 -225 -28 -18 -45 -34 -38
-37 20 -6 177 125 269 225 98 108 195 203 263 258 25 20 65 57 90 83 25 27 62
61 83 76 31 24 40 26 53 16 22 -19 14 -54 -13 -58 -12 -2 -25 -12 -28 -22 -3
-10 -11 -17 -18 -14 -7 2 -47 -30 -90 -71 -43 -41 -82 -74 -86 -72 -14 4 -165
-140 -248 -235 -43 -49 -103 -108 -133 -131 -30 -22 -73 -58 -96 -79 l-41 -39
-24 25 c-31 33 -39 32 -113 -5 -33 -18 -68 -35 -76 -39 -45 -21 -136 -74 -142
-84 -5 -8 -23 -6 -59 7 -42 15 -56 17 -80 7 -58 -24 -88 -118 -54 -166 20 -30
118 -74 164 -74 39 0 71 24 95 71 6 12 42 38 79 56 39 20 72 44 78 57 6 12 25
29 42 38 18 8 45 21 61 29 15 7 31 21 35 30 3 9 47 48 96 86 50 39 120 101
156 139 36 38 99 104 139 147 83 87 208 190 273 224 48 26 61 28 51 11 -4 -7
7 0 23 15 28 26 34 28 69 18 57 -16 58 -16 125 42 33 28 73 60 87 69 28 19 21
22 75 -41 9 -12 17 -26 17 -31 0 -16 101 -111 128 -121 38 -14 66 -10 80 11
10 17 9 26 -4 53 -36 68 -128 177 -150 177 -7 0 -22 -14 -34 -31 l-22 -30 -20
21 -20 22 42 43 c28 28 41 49 37 59 -10 25 7 57 57 113 34 38 62 58 104 73
103 39 188 25 246 -39 10 -11 22 -18 26 -16 4 3 10 -14 13 -36 8 -62 22 -68
46 -21 26 52 26 60 -1 64 -19 2 -23 9 -20 33 1 17 -3 53 -9 80 -6 28 -12 75
-15 105 -4 67 -7 81 -18 99 -7 11 -10 11 -17 0 -5 -8 -9 -24 -9 -36 0 -13 -4
-23 -10 -23 -5 0 -10 -7 -10 -15 0 -8 5 -15 10 -15 6 0 10 -16 10 -36 0 -19 4
-33 9 -30 13 9 17 -14 11 -59 l-6 -40 -8 38 c-5 20 -16 47 -26 60 -22 28 -35
83 -21 92 6 3 11 19 11 36 0 48 23 110 39 104 10 -4 11 -2 4 7 -6 7 -13 30
-17 51 -5 25 -12 37 -23 37 -9 0 -13 3 -10 6 10 10 -12 44 -28 44 -9 0 -15 9
-15 21 0 17 -4 20 -24 15 -14 -3 -28 -2 -31 4 -3 5 3 10 14 10 12 0 21 6 21
13 0 18 -36 68 -43 60 -4 -3 -7 4 -7 17 0 12 -7 28 -16 34 -8 7 -12 19 -9 28
11 29 48 -1 78 -64 16 -32 33 -58 38 -58 13 0 -1 53 -16 62 -19 11 -38 65 -31
85 6 14 10 11 27 -16 15 -24 24 -31 39 -26 13 4 20 2 20 -6 0 -7 3 -10 6 -7 3
4 -2 17 -10 30 -9 14 -14 27 -11 30 3 3 1 17 -5 32 -13 34 4 73 24 57 18 -15
32 3 39 49 4 27 -1 43 -20 68 -31 41 -20 57 13 19 18 -21 24 -40 24 -75 0 -28
7 -57 16 -71 15 -21 15 -23 -6 -38 -17 -12 -21 -22 -16 -45 4 -19 1 -30 -8
-34 -11 -4 -11 -11 0 -42 7 -20 13 -54 14 -74 0 -43 16 -51 26 -13 3 14 10 25
14 25 10 0 21 -71 20 -128 0 -36 5 -47 30 -69 22 -18 28 -29 21 -36 -6 -6 -11
-22 -11 -36 -1 -26 -1 -26 -14 4 l-13 30 -7 -42 c-5 -25 -3 -56 3 -76 7 -19
13 -47 16 -63 2 -16 7 -43 10 -60 5 -24 3 -33 -9 -37 -18 -7 -22 -62 -7 -86 8
-12 11 -8 16 15 4 16 11 42 16 58 5 16 9 42 9 58 0 17 4 27 10 23 6 -3 10 2
11 12 1 10 3 48 5 85 2 37 -1 70 -6 73 -6 4 -10 18 -10 33 0 20 3 23 12 14 23
-23 28 -12 25 61 -1 55 1 71 11 69 10 -2 12 11 10 50 -3 56 -22 75 -37 37 l-8
-23 -12 21 c-6 12 -11 32 -10 45 0 13 3 17 6 11 9 -23 21 -14 26 20 2 18 -1
40 -9 52 -8 11 -14 29 -14 40 0 11 -9 39 -19 61 -32 70 -8 67 29 -4 32 -61 35
-64 38 -39 2 16 -3 36 -12 46 -9 10 -16 23 -16 30 0 19 -48 63 -53 48 -2 -7
-11 3 -21 21 -15 29 -15 33 -1 38 14 6 14 9 -2 28 -25 29 -45 66 -36 66 5 -1
28 -11 52 -23 33 -16 48 -31 55 -54 12 -37 42 -70 53 -60 3 4 1 13 -5 19 -7 7
-12 27 -12 45 0 24 -5 33 -17 34 -11 0 -13 3 -6 6 10 3 10 10 2 25 -18 33 -19
108 -3 109 8 1 20 2 26 3 21 2 20 34 -1 53 -28 23 -26 47 4 63 30 16 32 26 5
33 -11 3 -20 9 -19 14 1 4 -1 16 -6 27 -5 12 -3 21 6 27 11 6 7 16 -20 43 -18
19 -39 45 -45 58 -6 13 -22 24 -35 26 -17 3 -22 9 -18 22 3 11 -7 32 -24 52
-15 18 -29 42 -29 53 -1 28 -24 55 -46 55 -15 0 -23 12 -33 45 -11 37 -17 45
-37 45 -23 0 -82 68 -113 131 -7 14 -25 33 -40 42 -15 9 -36 34 -46 57 -10 22
-22 40 -26 40 -5 0 -24 14 -44 31 -20 18 -38 29 -42 26 -3 -4 -17 3 -31 14
-19 15 -27 17 -33 7 -6 -9 -12 -8 -27 5 -28 25 -37 21 -17 -10 16 -24 16 -26
0 -20 -9 4 -20 7 -25 7 -4 0 -30 17 -57 38 -56 45 -92 66 -100 58 -3 -3 11
-20 30 -38 42 -39 91 -108 82 -116 -11 -11 -39 14 -45 39 -4 16 -20 31 -48 44
-62 30 -75 46 -63 77 8 21 6 29 -8 42 -24 22 -40 20 -34 -4 13 -50 -77 12 -98
67 -5 13 -21 29 -36 35 -16 7 -39 23 -52 35 -34 33 -72 28 -39 -5 9 -9 8 -12
-5 -12 -18 0 -33 -42 -22 -60 6 -9 2 -9 -14 -1 -13 8 -27 8 -37 3 -13 -7 -7
-13 32 -28 57 -21 96 -43 107 -61 4 -7 16 -13 25 -13 31 -1 97 -46 100 -69 3
-21 1 -20 -48 11 -70 45 -114 67 -120 61 -3 -3 1 -8 8 -10 17 -7 15 -23 -3
-23 -9 0 -23 13 -32 28 -16 28 -80 66 -117 69 -12 1 -52 7 -91 13 -38 7 -87
13 -108 15 -39 4 -107 39 -107 56 0 12 7 11 31 -2 18 -9 19 -8 8 9 -10 17 -24
19 -91 19 -47 0 -84 5 -90 11 -18 18 -45 14 -51 -7z m121 -56 c28 -14 57 -25
65 -25 9 0 18 -4 22 -10 3 -5 13 -6 22 -3 10 4 24 -3 37 -19 41 -49 130 -105
186 -117 30 -6 62 -19 72 -28 17 -15 18 -15 18 5 0 17 -18 30 -82 61 -74 35
-79 39 -50 40 17 1 32 -4 32 -9 0 -6 12 -15 28 -20 15 -6 36 -14 47 -19 11 -5
41 -16 67 -25 25 -10 49 -24 52 -32 3 -8 10 -13 15 -9 5 3 13 0 16 -6 4 -5 21
-10 39 -9 45 3 56 1 56 -9 0 -5 -10 -7 -22 -3 -18 4 -20 2 -16 -16 5 -19 3
-21 -20 -15 -49 11 -70 22 -91 44 -12 13 -21 18 -21 12 0 -6 7 -16 16 -24 8
-7 13 -20 11 -30 -3 -12 6 -22 34 -35 65 -29 67 -42 6 -32 -59 10 -126 12
-135 4 -3 -3 6 -6 19 -6 13 0 33 -7 43 -15 11 -8 15 -15 8 -15 -19 0 -66 23
-85 42 -10 10 -36 21 -57 24 -22 4 -40 11 -40 16 0 5 -13 14 -30 19 -16 6 -30
15 -30 20 0 14 26 10 40 -6 7 -8 18 -14 24 -13 6 1 27 -7 46 -17 34 -19 110
-28 110 -14 0 4 -15 18 -32 31 -18 12 -41 31 -50 40 -10 10 -22 18 -28 18 -18
0 -10 -17 16 -35 48 -31 18 -26 -54 10 -39 19 -77 35 -85 35 -7 0 -17 4 -22 9
-23 20 -101 42 -124 33 -22 -8 -21 -9 21 -29 23 -12 56 -25 72 -30 46 -13 45
-33 -1 -33 -54 0 -58 -8 -20 -41 17 -15 29 -30 26 -33 -11 -11 -45 6 -54 27
-6 12 -21 24 -35 28 -14 4 -18 7 -8 8 9 1 18 7 20 13 6 16 -59 76 -91 85 -14
3 -36 12 -50 20 -24 13 -22 13 24 7 43 -5 61 2 23 10 -22 5 -48 18 -48 25 0 3
4 12 9 19 7 11 16 10 51 -8 38 -19 86 -21 64 -1 -7 6 -89 33 -141 47 -20 5
-15 34 5 35 16 1 16 2 0 6 -21 5 -24 23 -4 23 8 0 37 -11 64 -25z m62 10 c7
-8 8 -15 2 -15 -5 0 -15 7 -22 15 -7 8 -8 15 -2 15 5 0 15 -7 22 -15z m-455
-45 c-3 -5 -12 -7 -20 -3 -21 7 -19 13 6 13 11 0 18 -4 14 -10z m65 -55 c10
-12 10 -15 -3 -15 -8 0 -20 7 -27 15 -10 12 -10 15 3 15 8 0 20 -7 27 -15z
m918 -4 c3 -8 -1 -12 -9 -9 -7 2 -15 10 -17 17 -3 8 1 12 9 9 7 -2 15 -10 17
-17z m-754 -6 c3 -9 0 -15 -9 -15 -8 0 -15 7 -15 15 0 8 4 15 9 15 5 0 11 -7
15 -15z m-134 -36 c18 -32 6 -45 -18 -19 -20 22 -21 40 -2 40 5 0 14 -9 20
-21z m183 -44 c36 -25 74 -45 84 -45 11 0 28 -10 39 -22 l19 -22 -27 17 c-15
9 -38 17 -51 17 -14 0 -30 7 -37 15 -7 8 -17 15 -22 15 -6 0 -22 8 -36 19 -15
10 -44 21 -64 25 -52 9 -58 26 -9 26 31 0 54 -10 104 -45z m-463 15 c0 -5 -6
-10 -14 -10 -8 0 -18 5 -21 10 -3 6 3 10 14 10 12 0 21 -4 21 -10z m230 -55
c7 -8 9 -15 6 -15 -4 0 -14 7 -22 15 -9 8 -11 15 -6 15 5 0 15 -7 22 -15z
m124 -1 c5 -14 4 -15 -9 -4 -17 14 -19 20 -6 20 5 0 12 -7 15 -16z m986 -10
c0 -11 -5 -14 -16 -10 -9 3 -20 6 -25 6 -6 0 -7 5 -4 10 10 16 45 12 45 -6z
m-715 -5 c11 -17 -1 -21 -15 -4 -8 9 -8 15 -2 15 6 0 14 -5 17 -11z m-775 -9
c0 -5 -2 -10 -4 -10 -3 0 -8 5 -11 10 -3 6 -1 10 4 10 6 0 11 -4 11 -10z m540
-5 c11 -13 10 -14 -4 -9 -9 3 -16 10 -16 15 0 13 6 11 20 -6z m94 -10 c-4 -8
-10 -12 -15 -9 -11 6 -2 24 11 24 5 0 7 -7 4 -15z m-561 -19 c4 -10 1 -13 -9
-9 -15 6 -19 23 -5 23 5 0 11 -7 14 -14z m380 -23 c18 -9 37 -16 43 -15 7 1
14 -5 18 -13 4 -12 1 -15 -12 -12 -9 3 -38 10 -64 17 -28 7 -48 18 -48 26 0
19 24 18 63 -3z m280 10 c-7 -2 -21 -2 -30 0 -10 3 -4 5 12 5 17 0 24 -2 18
-5z m81 -12 c7 -11 -22 -23 -35 -15 -5 3 -7 10 -4 15 8 12 32 12 39 0z m-815
-11 c10 -5 26 -20 35 -34 15 -24 15 -25 -1 -19 -10 3 -26 13 -36 22 -11 9 -31
21 -45 28 l-27 11 28 1 c16 1 36 -3 46 -9z m779 -25 c15 -15 -12 -15 -40 -1
l-33 17 34 -5 c19 -4 37 -8 39 -11z m-878 -5 c0 -13 -11 -13 -30 0 -12 8 -11
10 8 10 12 0 22 -4 22 -10z m674 -9 c17 -7 26 -7 28 1 5 15 48 -8 48 -26 0
-10 -11 -11 -42 -6 -52 9 -78 19 -78 31 0 12 12 11 44 0z m707 -44 c-5 -5 -17
-5 -28 1 -11 6 -25 7 -33 2 -21 -13 4 -38 47 -46 23 -4 31 -10 24 -17 -15 -15
-78 1 -101 25 -14 15 -31 21 -53 20 -19 -1 -42 6 -57 17 -29 23 -19 41 13 22
29 -19 119 -15 130 4 7 14 12 13 38 -2 16 -10 25 -21 20 -26z m-1281 23 c0 -5
-2 -10 -4 -10 -3 0 -8 5 -11 10 -3 6 -1 10 4 10 6 0 11 -4 11 -10z m170 0 c0
-5 -4 -10 -10 -10 -5 0 -10 5 -10 10 0 6 5 10 10 10 6 0 10 -4 10 -10z m567
-15 c8 -9 13 -19 10 -22 -11 -10 -57 7 -57 22 0 20 27 19 47 0z m183 -27 c55
-16 87 -34 78 -44 -4 -4 -14 -1 -23 6 -8 7 -25 10 -37 7 -13 -3 -32 1 -42 9
-11 8 -30 14 -42 14 -24 0 -38 13 -26 24 7 8 19 6 92 -16z m-845 2 c3 -5 2
-10 -4 -10 -5 0 -13 5 -16 10 -3 6 -2 10 4 10 5 0 13 -4 16 -10z m730 0 c3 -5
2 -10 -4 -10 -5 0 -13 5 -16 10 -3 6 -2 10 4 10 5 0 13 -4 16 -10z m75 -40 c0
-5 -5 -10 -11 -10 -5 0 -7 5 -4 10 3 6 8 10 11 10 2 0 4 -4 4 -10z m184 -31
c-3 -5 -14 -9 -24 -9 -10 0 -22 -5 -25 -10 -5 -8 -11 -8 -20 0 -7 6 -21 7 -31
3 -17 -6 -16 -7 2 -15 12 -5 6 -6 -16 -2 -19 4 -46 13 -60 20 -24 14 -24 14
13 8 24 -4 37 -2 37 5 0 6 6 9 13 7 46 -15 67 -16 67 -3 0 10 8 13 25 9 14 -2
22 -8 19 -13z m436 -133 c0 -8 -5 -18 -10 -21 -13 -8 -42 14 -34 26 9 15 44
10 44 -5z m150 -316 c0 -5 -2 -10 -4 -10 -3 0 -8 5 -11 10 -3 6 -1 10 4 10 6
0 11 -4 11 -10z m470 -161 c0 -11 -5 -17 -10 -14 -19 11 2 -78 27 -117 27 -43
30 -63 8 -54 -13 5 -13 2 1 -19 8 -13 14 -34 12 -47 -3 -20 -6 -18 -23 17 -20
39 -65 66 -52 30 6 -13 3 -15 -13 -10 -23 7 -28 -10 -5 -19 16 -6 21 -36 6
-36 -22 0 -60 67 -66 114 l-5 50 22 -20 c13 -10 27 -23 31 -29 5 -5 6 2 3 18
-5 19 -2 29 9 33 10 4 15 20 15 53 0 43 12 71 32 71 4 0 8 -9 8 -21z m50 -99
c13 -24 -2 -27 -24 -4 -20 19 -20 24 -1 24 8 0 19 -9 25 -20z m100 -6 c0 -8
-4 -12 -10 -9 -5 3 -10 10 -10 16 0 5 5 9 10 9 6 0 10 -7 10 -16z m-350 -88
c0 -3 -4 -8 -10 -11 -5 -3 -10 -1 -10 4 0 6 5 11 10 11 6 0 10 -2 10 -4z m270
-16 c0 -13 -5 -18 -15 -14 -12 5 -13 10 -4 20 15 19 19 18 19 -6z m95 -20 c3
-5 1 -10 -4 -10 -6 0 -11 5 -11 10 0 6 2 10 4 10 3 0 8 -4 11 -10z m-145 -45
c7 -14 10 -28 7 -32 -8 -8 -36 26 -37 45 0 20 16 14 30 -13z m-2 -96 c-9 -6
-16 -1 -22 12 -7 15 -6 23 5 29 10 7 16 3 22 -12 5 -14 3 -24 -5 -29z m199
-47 c16 -40 3 -42 -20 -3 -20 34 -21 44 -5 39 7 -3 18 -19 25 -36z m-2862 7
c5 -5 -8 -9 -32 -9 -41 0 -60 10 -46 24 9 8 64 -3 78 -15z m2470 -29 c3 -5 1
-10 -4 -10 -6 0 -11 5 -11 10 0 6 2 10 4 10 3 0 8 -4 11 -10z m155 -14 c0 -3
-4 -8 -10 -11 -5 -3 -10 -1 -10 4 0 6 5 11 10 11 6 0 10 -2 10 -4z m-103 -54
c17 -41 -1 -42 -21 0 -19 37 -20 41 -4 36 7 -3 18 -19 25 -36z m-1535 -108
c133 -18 191 -34 257 -69 82 -45 95 -89 65 -233 -30 -150 -82 -289 -120 -324
-53 -46 -224 -62 -357 -32 -86 20 -185 63 -211 93 -15 16 -22 18 -28 9 -6 -10
-13 -7 -28 11 -25 29 -26 50 -2 28 28 -26 32 -21 18 21 -7 20 -16 69 -20 107
-4 39 -14 109 -22 156 -15 81 -15 89 2 145 14 43 25 60 39 63 11 2 22 6 25 10
25 32 207 40 382 15z m-612 -138 c0 -18 -37 -63 -45 -54 -8 8 22 68 35 68 6 0
10 -6 10 -14z m2527 -45 c17 -40 0 -32 -21 10 -10 20 -11 29 -4 27 7 -3 18
-19 25 -37z m-507 3 c0 -8 -4 -14 -10 -14 -5 0 -10 9 -10 21 0 11 5 17 10 14
6 -3 10 -13 10 -21z m-70 -23 c0 -11 -26 -22 -34 -14 -12 12 -5 23 14 23 11 0
20 -4 20 -9z m92 -31 c9 0 21 -7 28 -15 9 -11 6 -20 -20 -45 -41 -40 -52 -38
-44 8 4 28 2 41 -10 51 -9 7 -13 18 -10 23 3 5 13 3 23 -6 10 -9 25 -16 33
-16z m206 -3 c4 -29 -12 -37 -22 -11 -10 26 -7 46 7 42 6 -3 13 -17 15 -31z
m-909 7 c3 -3 -1 -10 -8 -17 -11 -9 -14 -9 -18 1 -3 6 -9 12 -15 12 -6 0 -5
-6 2 -15 9 -11 10 -19 3 -26 -15 -15 -26 7 -19 37 5 20 11 24 29 18 12 -3 24
-8 26 -10z m-2132 -146 c-3 -8 -6 -5 -6 6 -1 11 2 17 5 13 3 -3 4 -12 1 -19z
m23 -44 c0 -8 -4 -12 -10 -9 -5 3 -10 10 -10 16 0 5 5 9 10 9 6 0 10 -7 10
-16z m2740 -113 c0 -5 -7 -12 -16 -15 -24 -9 -28 -7 -14 9 14 17 30 20 30 6z
m-220 -226 c7 -9 10 -18 7 -22 -4 -3 -3 -11 2 -17 18 -23 20 -63 5 -85 -9 -12
-14 -25 -10 -28 9 -10 -23 -62 -49 -79 -32 -21 -50 -13 -70 30 -21 44 -17 90
9 94 10 2 22 -1 26 -8 5 -8 10 -9 14 -1 4 6 -4 13 -19 17 -40 10 -27 79 20 99
40 18 50 18 65 0z m-972 -843 c3 -9 -2 -13 -14 -10 -9 1 -19 9 -22 16 -3 9 2
13 14 10 9 -1 19 -9 22 -16z m-44 -25 c9 -14 5 -22 -19 -42 -18 -14 -37 -22
-48 -19 -10 3 -25 0 -33 -7 -12 -10 -18 -9 -31 3 -19 20 -11 35 25 43 15 3 38
14 52 25 28 22 39 21 54 -3z m-154 -83 c16 -19 -1 -38 -42 -48 -25 -6 -28 -3
-28 17 0 15 9 28 23 35 30 14 33 14 47 -4z m-130 -32 c0 -11 -51 -35 -58 -28
-3 3 1 12 8 21 13 16 50 21 50 7z"/>
<path d="M2625 3790 c10 -11 25 -20 34 -20 12 0 9 6 -9 20 -33 26 -48 26 -25
0z"/>
<path d="M1825 2215 c-68 -33 -113 -79 -96 -99 7 -8 19 -12 27 -9 21 8 17 -14
-8 -48 l-22 -30 31 -29 c51 -48 79 -34 66 30 -8 41 12 38 23 -2 8 -27 17 -35
47 -42 34 -9 41 -7 62 15 33 33 40 75 13 82 -12 4 -17 10 -13 17 4 7 16 10 26
7 10 -3 19 -1 21 4 4 11 96 -49 138 -92 44 -43 70 -55 70 -31 0 9 -4 22 -8 27
-9 13 -160 104 -229 139 -29 15 -53 31 -53 36 0 17 73 11 139 -12 41 -15 82
-39 112 -66 27 -24 53 -41 59 -37 33 20 -76 104 -182 139 -96 33 -158 33 -223
1z"/>
<path d="M2610 4095 c0 -15 6 -25 14 -25 19 0 30 32 14 42 -21 13 -28 9 -28
-17z"/>
<path d="M2000 4101 c0 -5 7 -11 15 -15 8 -3 15 -1 15 3 0 5 -7 11 -15 15 -8
3 -15 1 -15 -3z"/>
<path d="M2371 4066 c2 -2 15 -9 29 -15 24 -11 24 -11 6 3 -16 13 -49 24 -35
12z"/>
<path d="M2048 4043 c7 -3 16 -2 19 1 4 3 -2 6 -13 5 -11 0 -14 -3 -6 -6z"/>
<path d="M2870 4000 c0 -5 5 -10 11 -10 5 0 7 5 4 10 -3 6 -8 10 -11 10 -2 0
-4 -4 -4 -10z"/>
<path d="M1440 3595 c0 -9 31 -34 43 -35 4 0 7 7 7 15 0 8 -4 15 -9 15 -5 0
-16 3 -25 6 -9 3 -16 3 -16 -1z"/>
<path d="M1228 3573 c7 -3 16 -2 19 1 4 3 -2 6 -13 5 -11 0 -14 -3 -6 -6z"/>
<path d="M1538 3573 c7 -3 16 -2 19 1 4 3 -2 6 -13 5 -11 0 -14 -3 -6 -6z"/>
<path d="M1885 3530 c3 -5 16 -10 28 -10 18 0 19 2 7 10 -20 13 -43 13 -35 0z"/>
<path d="M1240 3510 c0 -6 13 -13 30 -16 43 -9 25 -27 -19 -19 -25 4 -42 1
-56 -10 -19 -15 -19 -15 8 -9 17 4 41 0 62 -10 24 -12 40 -14 52 -7 18 9 114
7 165 -4 15 -4 49 -18 76 -32 26 -14 75 -29 112 -33 56 -8 74 -5 134 16 48 16
80 22 103 18 32 -6 47 9 21 19 -8 3 -6 6 5 6 9 1 17 -3 17 -8 0 -13 113 -33
137 -24 19 7 4 30 -28 43 -16 7 -29 16 -29 21 0 5 -15 9 -32 9 -18 0 -60 7
-93 16 -97 25 -157 36 -162 30 -10 -10 19 -36 41 -37 15 -1 16 -3 5 -6 -9 -2
-43 5 -75 16 -33 11 -60 16 -62 11 -2 -5 -17 -4 -33 2 -40 14 -48 4 -10 -13
27 -12 42 -29 25 -29 -8 0 -105 30 -132 41 -17 7 -27 5 -38 -6 -19 -19 -109
-20 -145 -1 -38 20 -79 28 -79 16z m346 -64 c27 -13 58 -33 68 -45 l20 -22
-30 16 c-16 8 -37 15 -46 15 -9 0 -20 5 -23 10 -3 6 -14 10 -24 10 -11 0 -29
9 -42 20 l-24 19 26 1 c14 0 47 -11 75 -24z"/>
<path d="M1405 3510 c11 -5 27 -9 35 -9 9 0 8 4 -5 9 -11 5 -27 9 -35 9 -9 0
-8 -4 5 -9z"/>
<path d="M2131 3486 l-35 -13 53 -18 c43 -14 57 -15 76 -5 15 8 40 10 73 5 54
-7 92 0 92 17 0 6 -9 8 -22 3 -13 -3 -27 -6 -33 -6 -11 1 -106 17 -145 24 -14
3 -40 0 -59 -7z"/>
<path d="M2406 3451 c-15 -6 -16 -10 -7 -15 8 -5 20 -2 29 8 17 17 9 19 -22 7z"/>
<path d="M2698 3443 c6 -2 18 -2 25 0 6 3 1 5 -13 5 -14 0 -19 -2 -12 -5z"/>
<path d="M2353 3403 c9 -2 25 -2 35 0 9 3 1 5 -18 5 -19 0 -27 -2 -17 -5z"/>
<path d="M1127 3303 c-4 -3 -7 -11 -7 -17 0 -6 5 -5 12 2 6 6 9 14 7 17 -3 3
-9 2 -12 -2z"/>
<path d="M1075 3210 c-17 -27 -46 -85 -56 -110 -9 -23 -8 -23 15 5 31 38 59
92 54 107 -3 8 -7 7 -13 -2z"/>
<path d="M916 2882 c-21 -46 -36 -91 -34 -104 4 -22 5 -22 13 -3 73 180 86
243 21 107z"/>
<path d="M3937 2766 c10 -13 19 -20 21 -15 2 5 -3 16 -11 24 -24 23 -30 18
-10 -9z"/>
<path d="M3906 2728 c5 -7 9 -15 9 -18 0 -3 6 -14 12 -25 11 -18 12 -18 18 -3
11 29 1 53 -24 56 -17 3 -21 0 -15 -10z"/>
<path d="M3851 2643 c8 -10 20 -30 27 -45 10 -25 32 -39 32 -20 -1 24 -14 52
-26 52 -8 0 -14 4 -14 9 0 5 -8 12 -17 15 -15 6 -15 5 -2 -11z"/>
<path d="M3320 2529 c0 -17 -4 -38 -10 -48 -7 -14 -5 -24 9 -40 21 -25 41 -27
41 -6 0 8 -4 15 -10 15 -5 0 -10 25 -10 55 0 30 -4 55 -10 55 -5 0 -10 -14
-10 -31z"/>
<path d="M3661 2504 c0 -11 3 -14 6 -6 3 7 2 16 -1 19 -3 4 -6 -2 -5 -13z"/>
<path d="M3020 2421 c0 -16 5 -33 10 -36 6 -4 10 6 10 24 0 16 -4 33 -10 36
-6 4 -10 -6 -10 -24z"/>
<path d="M1000 2345 c0 -7 72 -36 77 -31 3 3 -9 12 -26 20 -30 16 -51 20 -51
11z"/>
<path d="M1202 2290 c0 -19 2 -27 5 -17 2 9 2 25 0 35 -3 9 -5 1 -5 -18z"/>
<path d="M3643 2250 c4 -14 7 -28 7 -32 0 -5 5 -8 10 -8 16 0 11 36 -7 51 -15
13 -16 11 -10 -11z"/>
<path d="M1172 2198 c0 -39 2 -46 7 -28 20 67 21 80 7 80 -10 0 -13 -15 -14
-52z"/>
<path d="M3430 2226 c0 -10 8 -16 22 -16 12 0 19 1 17 3 -2 1 -12 9 -21 16
-15 12 -18 11 -18 -3z"/>
<path d="M3151 2214 c0 -11 3 -14 6 -6 3 7 2 16 -1 19 -3 4 -6 -2 -5 -13z"/>
<path d="M3380 2200 c0 -19 3 -21 12 -12 9 9 9 15 0 24 -9 9 -12 7 -12 -12z"/>
<path d="M1035 2069 c55 -11 75 -11 75 1 0 6 -25 9 -57 9 -57 -1 -58 -1 -18
-10z"/>
<path d="M3740 1956 c0 -2 7 -9 15 -16 12 -10 15 -10 15 4 0 9 -7 16 -15 16
-8 0 -15 -2 -15 -4z"/>
<path d="M3483 1648 c-66 -36 -130 -84 -149 -113 -25 -38 -8 -49 51 -34 44 11
49 16 71 65 21 48 27 54 54 54 22 0 30 -5 30 -18 0 -10 5 -23 11 -29 12 -12
29 -180 22 -217 -3 -13 0 -27 6 -30 7 -5 11 4 11 23 0 20 7 34 20 41 15 8 18
17 13 41 -5 29 -4 31 16 24 17 -5 21 -2 21 16 0 12 -7 27 -16 34 -12 8 -14 18
-9 35 l8 24 18 -23 19 -23 0 47 c0 38 -5 52 -29 76 -24 24 -38 29 -78 29 -31
0 -63 -8 -90 -22z"/>
<path d="M1200 1497 c-25 -13 -45 -30 -45 -38 0 -16 85 -32 126 -23 20 4 35
-4 69 -36 35 -33 49 -40 83 -40 32 0 99 27 133 54 1 1 5 17 9 36 l8 35 -46
-42 c-26 -24 -52 -43 -59 -43 -33 0 -60 15 -68 36 -12 31 -80 75 -127 81 -28
3 -50 -2 -83 -20z"/>
<path d="M3213 1319 c-7 -7 -13 -25 -13 -40 0 -18 -10 -36 -31 -53 -32 -27
-18 -37 23 -15 15 8 27 8 44 -2 33 -17 40 -5 18 28 -10 15 -20 43 -23 61 -5
27 -8 31 -18 21z"/>
<path d="M3659 1294 c-22 -26 -82 -134 -74 -134 33 0 99 92 93 131 -3 21 -3
21 -19 3z"/>
<path d="M1125 1110 c-6 -9 8 -14 28 -11 4 0 7 -8 7 -19 0 -15 -7 -20 -25 -20
-35 0 -31 -17 5 -25 16 -4 32 -11 35 -16 4 -5 14 -4 24 3 24 15 84 3 106 -22
15 -17 16 -22 4 -36 -10 -12 -25 -14 -63 -10 -28 3 -73 7 -100 9 -64 6 -72 21
-49 83 4 12 -46 34 -78 34 -39 0 -72 -25 -91 -69 -17 -40 -17 -46 -3 -53 8 -5
15 -16 15 -23 0 -10 11 -15 34 -15 26 0 41 -7 59 -30 21 -24 33 -30 66 -30 31
0 41 -4 41 -16 0 -12 7 -14 29 -9 17 4 32 2 36 -5 5 -8 13 -7 30 4 28 18 136
39 161 30 11 -3 29 -11 41 -17 28 -13 133 9 133 28 0 21 -138 133 -210 170
-27 14 -34 14 -41 3 -7 -10 -12 -11 -29 0 -11 6 -36 12 -55 12 -19 0 -34 3
-33 8 1 4 -1 17 -6 30 -5 16 -15 22 -36 22 -16 0 -32 -4 -35 -10z m117 -190
c5 0 8 -10 6 -22 -4 -28 -45 -38 -54 -14 -9 24 4 49 22 42 9 -3 20 -6 26 -6z
m107 -16 c8 -8 -21 -24 -46 -24 -17 0 -23 6 -23 21 0 19 4 21 32 15 17 -3 34
-9 37 -12z"/>
<path d="M3383 1053 c-13 -2 -23 -8 -23 -13 0 -5 14 -4 30 1 27 10 42 21 23
18 -5 -1 -18 -4 -30 -6z"/>
<path d="M2962 978 c-15 -18 -62 -136 -62 -155 0 -23 53 -14 79 12 13 14 29
25 37 25 16 0 19 16 4 25 -11 7 -37 62 -42 89 -3 17 -4 17 -16 4z"/>
<path d="M3163 839 c-13 -5 -26 -21 -31 -41 -12 -45 -7 -47 29 -11 36 35 37
65 2 52z"/>
<path d="M1340 694 l-25 -15 25 5 c14 3 31 6 38 6 6 0 12 5 12 10 0 14 -21 12
-50 -6z"/>
<path d="M1168 683 c7 -3 16 -2 19 1 4 3 -2 6 -13 5 -11 0 -14 -3 -6 -6z"/>
</g>
</svg>
